# xmcd CD database file
#
# Track frame offsets:
#	150
#	12810
#	28035
#	46377
#	59427
#	76401
#	89130
#	108726
#	121339
#	140264
#	155130
#	167962
#	181875
#	197666
#	211747
#	223400
#
# Disc length: 3140 seconds
#
# Revision: 0
# Processed by: cddbd v1.5.2PL0 Copyright (c) Steve Scherf et al.
# Submitted via: CDex 1.51
#
DISCID=eb0c4210
DTITLE=Hadassah - Keep It to Yourself
DYEAR=2007
DGENRE=Country
TTITLE0=Keep It to Yourself
TTITLE1=Marble Rain
TTITLE2=Black Riviera
TTITLE3=Shadow in the Dark
TTITLE4=Sweet Talkin' Man
TTITLE5=Nobody's Fool
TTITLE6=I Won't Hold You Down [Duet with Kenny G]
TTITLE7=A Real Goodnight
TTITLE8=I Fall
TTITLE9=Hold Me
TTITLE10=Big Man
TTITLE11=Baby, I Forgive You
TTITLE12=I Won't Be the One
TTITLE13=It's Not What You Do
TTITLE14=Too Much Smoke
TTITLE15=Lonely in New York
EXTD=YEAR: 2007
EXTT0=
EXTT1=
EXTT2=
EXTT3=
EXTT4=
EXTT5=
EXTT6=
EXTT7=
EXTT8=
EXTT9=
EXTT10=
EXTT11=
EXTT12=
EXTT13=
EXTT14=
EXTT15=
PLAYORDER=
